<svg xmlns="http://www.w3.org/2000/svg" id="Layer_2" data-name="Layer 2" viewBox="0 0 318.8 297"><defs><linearGradient id="linear-gradient" x1="164.99" x2="164.99" y1="287.07" y2="15.32" gradientUnits="userSpaceOnUse"><stop offset=".01" stop-color="#2d5daa"/><stop offset="1" stop-color="#110930"/></linearGradient><style>.cls-2,.cls-4,.cls-6{stroke-width:0}.cls-6{fill:#fff}.cls-10{fill:none;stroke:#fff;stroke-linecap:round;stroke-miterlimit:10;stroke-width:4px}.cls-2{fill:#6f6fdd}.cls-4{fill:#a8a8a8}</style></defs><g id="Layer_2-2" data-name="Layer 2"><circle cx="164.99" cy="161.12" r="135.88" style="stroke-width:0;fill:url(#linear-gradient)"/><circle cx="78.33" cy="207.24" r="11.81" class="cls-2"/><circle cx="236.11" cy="189.52" r="5.91" class="cls-2"/><path d="M143.41 213.71s-17.96-18.01-7.23-36.17c11.75-19.89 39.79-14.47 47.92-.9 11.74 19.57-9.91 45.65-4.52 49.73-18.99-.9-.74-30.74-22.61-30.74-16.28 0-13.56 18.08-13.56 18.08Z" style="fill:#e8945b;stroke-width:0"/><path d="m132.74 105.9-24.88 31.37v36.22l26.45-26.02M186.35 105.9l24.88 31.37v36.22l-27.97-26.02" class="cls-4"/><path d="m134.31 160.02-2.83-84.27c0-21.47 5.36-42.66 16.05-61.28 4.73-8.25 9.69-14.65 13.6-14.47s8.62 6.46 13.03 14.41c9.8 17.65 14.69 37.6 14.69 57.78l-5.61 87.82c-16.32-7.53-32.63-7.53-48.95 0Z" style="fill:#d8d8d8;stroke-width:0"/><circle cx="161.17" cy="61.87" r="12.81" style="fill:#444;stroke-width:0"/><circle cx="134.13" cy="257.51" r="19.49" class="cls-2"/><text style="fill:#fff;font-family:Baloo2-SemiBold,&quot;Baloo 2&quot;;font-size:27.28px;font-weight:600" transform="translate(125.79 264.62)"><tspan x="0" y="0">A</tspan></text><circle cx="33.62" cy="147.25" r="33.62" class="cls-2"/><path d="M18.01 137.98h28.64M32.33 130.45v7.53M27.04 146.7s2.55 7.5 18.77 14.45" class="cls-10"/><path d="M41.18 137.98s-4.07 16.22-20.29 23.17" class="cls-10"/><circle cx="289.89" cy="212.34" r="28.91" class="cls-2"/><path d="M300.03 202.07c-.69 3.44-3.37-2.7-5.51-1.38-1.28.4-2.74 2.03-3.06 3.37-.13.91-.22 1.2.53 1.67 2 .97 3.88.72 6.17 1.69 3.78 1.45 2.67 6.49.71 8.87-2.92 3.98-8.14 5.45-12.8 4.57-6.74-1.03-12.37-5.52-10.25-12.92.16-.64.34-1.26.55-1.86.19-.54 1.58-.46 1.63.11.05.61.85 4.44 1.39 5.49.41 1.03.73 1.4 1.55 2.19 1.59 1.73 3.36 1.81 5.71 2.22 3.45.67 7.38.32 9.46-2.55.77-1 1.41-1.88 1.03-2.77-.05-.08-.51-.44-1.07-.44-3.61-.02-6.55 0-7.74-3.46-.38-1.12-.41-2.73-.23-3.57.42-1.7 1.73-3.44 2.98-4.69 2.75-2.75 5.03-1.93 7.77.25a3.23 3.23 0 0 1 1.17 3.19Z" class="cls-6"/><rect width="5.62" height="4.62" x="281.16" y="225.3" class="cls-6" rx=".87" ry=".87" transform="rotate(45 283.97 227.614)"/><rect width="5.29" height="4.62" x="290.61" y="225.42" class="cls-6" rx=".87" ry=".87" transform="rotate(45 293.252 227.729)"/><circle cx="215.86" cy="241.51" r="18.15" class="cls-2"/><path d="M208.15 238.96s0-5.29 3.36-5.29c3.08 0 4.14 3.62 4.3 4.24 0 .02.04.02.04 0 .16-.62 1.23-4.24 4.3-4.24 3.36 0 4.33 5.29 3.36 8.17-.89 2.66-3.84 5.88-8.17 5.83s-5.29-2.94-5.29-2.94 0-3.16 5.29-3.5 8.17 7.35 8.17 7.35" style="fill:none;stroke:#fff;stroke-linecap:round;stroke-miterlimit:10;stroke-width:2px"/></g></svg>
